<svg width="41" height="40" viewBox="0 0 41 40" fill="none" xmlns="http://www.w3.org/2000/svg">
<path d="M10.6207 36.7393C10.1406 36.7393 9.68846 36.6847 9.26712 36.5728C7.82114 36.1893 6.8161 35.141 6.35557 33.5371C2.68954 30.7184 0.510072 26.7352 0.218917 22.3154C-0.100233 17.4897 1.81327 12.7521 5.60389 8.97471L5.85445 8.72559L5.94823 9.06708C7.40541 14.3574 14.9614 23.5204 22.7918 29.4938L22.9794 29.6365L22.8114 29.8031C18.3951 34.2033 13.8836 36.7393 10.6207 36.7393ZM5.65148 9.51494C2.10723 13.165 0.326701 17.6884 0.630454 22.2888C0.91601 26.6107 3.05768 30.5042 6.65932 33.2516L6.71531 33.2936L6.73351 33.3608C7.15065 34.8737 8.03811 35.8198 9.3735 36.1739C9.76824 36.2789 10.1938 36.3306 10.6431 36.3306C13.7436 36.3306 18.0676 33.8996 22.3537 29.6771C14.6941 23.7807 7.33122 14.8795 5.65148 9.51494Z" fill="#656E75"/>
<path d="M9.5917 36.6241C5.59391 33.5744 1.73051 28.876 0.980225 26.1497L1.37776 26.0405C2.10845 28.6927 5.90606 33.2931 9.84226 36.2966L9.5917 36.6241Z" fill="#656E75"/>
<path d="M15.3801 35.276C8.56174 30.0753 1.97576 22.0711 0.697754 17.4344L1.09529 17.3252C2.3523 21.8878 8.87249 29.7939 15.6292 34.9485L15.3801 35.276Z" fill="#656E75"/>
<path d="M6.45625 33.6059C4.33417 32.7326 2.98898 31.1552 2.56905 29.0461C1.79777 25.1749 4.162 20.0497 8.89327 15.3359L9.18442 15.6284C4.55114 20.2442 2.2303 25.2295 2.97358 28.9649C3.36552 30.9327 4.62393 32.4065 6.61302 33.2252L6.45625 33.6059Z" fill="#656E75"/>
<path d="M5.80112 33.9239C5.68914 33.9239 5.59675 33.8876 5.52816 33.7994C5.38678 33.616 5.15022 33.3081 7.81961 30.2291C9.52874 28.2585 11.9994 25.6553 14.9627 22.7036L15.2539 22.9961C8.65528 29.5685 6.09647 32.7917 5.88791 33.4985C5.97469 33.4733 6.13847 33.4089 6.43102 33.2382L6.63819 33.595C6.33304 33.7714 6.02928 33.9239 5.80112 33.9239Z" fill="#656E75"/>
<path d="M18.497 37.4659C16.368 37.4659 14.2571 37.1636 12.2568 36.5519C11.151 36.7913 10.1431 36.8053 9.26686 36.5729C7.80129 36.1839 6.78784 35.1118 6.33571 33.4701L6.17334 32.8809L6.65907 33.2518C8.3528 34.5436 10.2607 35.5009 12.2848 36.1321C15.2243 35.4617 18.8918 33.1258 22.52 29.5121L22.6474 29.3848L22.7902 29.4939C26.0797 32.002 28.4397 33.2574 30.1054 33.8466C31.5486 32.9775 32.8994 31.9362 34.1144 30.7256L34.365 30.4764L34.4588 30.8179C35.0649 33.0194 34.4728 33.9669 33.8681 34.3742C33.0744 34.9103 31.7936 34.8697 30.1474 34.3C26.599 36.3924 22.513 37.4659 18.497 37.4659ZM13.0393 36.349C18.4438 37.8018 24.5763 37.0012 29.6491 34.1139C27.7174 33.3567 25.3378 31.939 22.6852 29.9292C19.3187 33.2546 15.906 35.4925 13.0393 36.349ZM6.93762 33.9669C7.40935 35.1286 8.22542 35.8704 9.37185 36.1741C9.99055 36.3378 10.6834 36.3714 11.4337 36.2804C9.83937 35.715 8.32481 34.9452 6.93762 33.9669ZM30.6206 34.0145C32.5635 34.594 33.4075 34.1895 33.6399 34.0313C34.4392 33.4911 34.386 32.2931 34.1494 31.2686C33.0646 32.3141 31.879 33.2294 30.6206 34.0145Z" fill="#656E75"/>
<path d="M14.6532 39.1291C13.5235 39.1291 11.722 38.2488 9.59155 36.6239L9.84211 36.2964C12.8726 38.6071 14.621 38.9724 15.1977 38.5833C15.5966 38.3132 15.5126 37.6428 15.3699 37.1277L15.7674 37.0186C16.0893 38.1886 15.7604 38.7008 15.4287 38.9248C15.2257 39.0619 14.9653 39.1291 14.6532 39.1291Z" fill="#656E75"/>
<path d="M23.9339 39.5369C22.047 39.5369 19.0011 38.038 15.3784 35.2753L15.629 34.9478C19.9459 38.2409 23.6105 39.7791 24.9627 38.8651C25.7186 38.3557 25.573 37.1423 25.3169 36.2144L25.7144 36.1052C26.2421 38.0226 25.7228 38.8497 25.1937 39.2066C24.8662 39.4278 24.442 39.5369 23.9339 39.5369Z" fill="#656E75"/>
<path d="M17.4333 39.4727C17.0078 39.4727 16.5823 39.4531 16.1595 39.414C12.1925 39.0445 8.71407 36.9549 6.36523 33.5316L6.70538 33.2979C8.98423 36.619 12.3563 38.6442 16.1987 39.0025C20.7396 39.4266 25.5339 37.4854 29.3553 33.6799L29.6464 33.9724C26.0924 37.5119 21.7055 39.4727 17.4333 39.4727Z" fill="#656E75"/>
<path d="M20.7269 39.7874C20.65 39.7874 20.573 39.7874 20.496 39.786C15.1796 39.723 10.1684 37.5103 6.38477 33.5565L6.68292 33.271C10.3881 37.1436 15.2958 39.3101 20.5002 39.3731C20.5758 39.3745 20.6514 39.3745 20.7269 39.3745C25.5702 39.3745 30.1027 37.5117 33.5126 34.1149L33.8037 34.4074C30.3169 37.8826 25.6808 39.7874 20.7269 39.7874Z" fill="#656E75"/>
<path d="M18.4971 37.465C14.127 37.465 9.83806 36.1928 6.40998 33.5784L6.35399 33.5364L6.3358 33.4692C4.85062 28.0781 9.72467 17.6345 17.1995 10.1874L17.3269 10.0601L17.4697 10.1692C25.3617 16.1888 32.9835 25.4497 34.4603 30.8142L34.4925 30.9304L34.4071 31.0158C30.1461 35.2607 24.2502 37.465 18.4971 37.465ZM6.71514 33.2929C14.4699 39.1584 26.6803 38.0444 34.0305 30.8086C32.5062 25.5337 25.0845 16.5387 17.3633 10.6073C10.0844 17.92 5.33215 28.0403 6.71514 33.2929Z" fill="#656E75"/>
<path d="M15.3698 37.1265C14.6391 34.4743 10.8415 29.8739 6.90527 26.8705L7.15583 26.543C11.1536 29.5926 15.017 34.291 15.7673 37.0173L15.3698 37.1265Z" fill="#656E75"/>
<path d="M25.3181 36.2135C24.0611 31.6509 17.5409 23.7448 10.7842 18.5902L11.0347 18.2627C17.8531 23.4635 24.4391 31.4676 25.7157 36.1044L25.3181 36.2135Z" fill="#656E75"/>
<path d="M10.7072 34.3572C9.13384 34.3572 7.69346 34.115 6.45605 33.6056L6.61283 33.2249C12.5913 35.6853 23.4536 31.7106 30.8277 24.3643L31.1189 24.6568C25.1516 30.5993 16.9054 34.3572 10.7072 34.3572Z" fill="#656E75"/>
<path d="M6.63808 33.5931L6.43091 33.2362C9.11849 31.6701 17.3408 24.3853 24.7583 16.9956L25.0494 17.2881C17.611 24.6988 9.35086 32.013 6.63808 33.5931Z" fill="#656E75"/>
<path d="M6.89582 33.9492L6.4101 33.5784C2.71047 30.7568 0.511408 26.7569 0.218853 22.3146C-0.097498 17.5253 1.78381 12.8214 5.51983 9.05934C4.96552 6.9404 5.54783 6.01948 6.14134 5.61921C7.92186 4.41698 12.1576 6.11745 17.4698 10.1706L17.6574 10.3134L17.4894 10.4799C10.1083 17.8332 5.28327 28.0963 6.73205 33.36L6.89582 33.9492ZM7.59431 5.67519C6.88322 5.67519 6.51368 5.86413 6.3709 5.9593C5.47924 6.56112 5.64861 7.98028 5.94677 9.06494L5.97896 9.18111L5.89358 9.26648C2.18975 12.9585 0.319637 17.5827 0.630389 22.288C0.903347 26.4238 2.87704 30.1676 6.20433 32.8912C5.20068 27.4007 9.90955 17.5309 17.0317 10.3553C11.8721 6.45195 9.03469 5.67519 7.59431 5.67519Z" fill="#656E75"/>
<path d="M6.9056 26.8702C3.87647 24.5595 2.12814 24.1928 1.55003 24.5833C1.15109 24.8534 1.23508 25.5238 1.37785 26.0389L0.980316 26.148C0.658366 24.978 0.987315 24.4658 1.31906 24.2418C2.25692 23.6092 4.43918 24.47 7.15616 26.5427L6.9056 26.8702Z" fill="#656E75"/>
<path d="M10.7843 18.5907C6.46733 15.2975 2.80549 13.7594 1.4505 14.6733C0.69462 15.1828 0.840198 16.3962 1.09636 17.3241L0.698819 17.4333C0.171101 15.5173 0.690421 14.6887 1.21954 14.3318C2.7677 13.2864 6.43793 14.7559 11.0348 18.2632L10.7843 18.5907Z" fill="#656E75"/>
<path d="M6.36525 33.5327C1.07686 25.8281 2.87279 13.4867 10.3672 6.02002L10.6584 6.31253C3.29692 13.6449 1.5234 25.7511 6.704 33.3004L6.36525 33.5327Z" fill="#656E75"/>
<path d="M6.38474 33.5585C-1.22028 25.6118 -1.30007 13.0619 6.20697 5.58398L6.49812 5.87649C-0.850742 13.1962 -0.768154 25.4872 6.68289 33.273L6.38474 33.5585Z" fill="#656E75"/>
<path d="M22.6855 29.9303L22.5427 29.8211C14.6507 23.8016 7.02892 14.5392 5.55075 9.17609L5.51855 9.05993L5.60394 8.97455C13.1026 1.50506 25.6614 0.35742 33.601 6.41334L33.657 6.45533L33.6752 6.52251C35.1604 11.9136 30.2877 22.3572 22.8129 29.8029L22.6855 29.9303ZM5.98188 9.18169C7.50625 14.4567 14.9279 23.4517 22.6491 29.383C29.9266 22.0717 34.6788 11.9514 33.2959 6.69886C25.5411 0.833273 13.3307 1.94733 5.98188 9.18169Z" fill="#656E75"/>
<path d="M28.9773 21.7282C22.159 16.5274 15.573 8.52327 14.2964 3.88651L14.6939 3.77734C15.9509 8.33993 22.4711 16.2461 29.2279 21.4007L28.9773 21.7282Z" fill="#656E75"/>
<path d="M32.8549 13.4492C28.8571 10.3996 24.9937 5.70125 24.2434 2.97489L24.6409 2.86572C25.3716 5.5179 29.1693 10.1183 33.1054 13.1217L32.8549 13.4492Z" fill="#656E75"/>
<path d="M9.18447 15.6273L8.89331 15.3348C16.3752 7.88214 27.4377 3.86819 33.5547 6.38601L33.3979 6.76669C27.4195 4.30765 16.5585 8.28102 9.18447 15.6273Z" fill="#656E75"/>
<path d="M15.254 22.9955L14.9629 22.703C22.4013 15.2937 30.6601 7.97952 33.3728 6.39941L33.58 6.7563C30.8924 8.32102 22.6715 15.6072 15.254 22.9955Z" fill="#656E75"/>
<path d="M32.4264 34.7514C30.2526 34.7514 26.7321 33.0173 22.5426 29.8207L22.355 29.6779L22.523 29.5114C29.904 22.1595 34.7291 11.8964 33.2789 6.63267L33.1165 6.04346L33.6022 6.41434C37.3019 9.23587 39.4995 13.2358 39.7935 17.6795C40.1098 22.4688 38.2285 27.1713 34.4939 30.9333C35.0482 33.0523 34.4659 33.9732 33.8724 34.3735C33.4945 34.6268 33.0087 34.7514 32.4264 34.7514ZM22.9793 29.6346C30.6837 35.4623 33.2089 34.3203 33.64 34.0306C34.5317 33.4288 34.3623 32.0096 34.0642 30.925L34.032 30.8088L34.1174 30.7234C37.8226 27.0328 39.6913 22.4086 39.3819 17.7046C39.109 13.5689 37.1353 9.82369 33.808 7.10013C34.8116 12.592 30.1028 22.4604 22.9793 29.6346Z" fill="#656E75"/>
<path d="M37.5316 25.9901C35.6446 25.9901 32.5987 24.4911 28.9761 21.7284L29.2266 21.4009C33.5436 24.6941 37.2082 26.2322 38.5604 25.3183C39.3163 24.8088 39.1707 23.5954 38.9145 22.6675L39.3121 22.5583C39.8398 24.4743 39.3205 25.3029 38.7914 25.6598C38.4638 25.8823 38.0397 25.9901 37.5316 25.9901Z" fill="#656E75"/>
<path d="M37.9163 15.9548C36.7853 15.9548 34.9852 15.0759 32.8547 13.4496L33.1053 13.1221C36.1344 15.4327 37.8842 15.7994 38.4609 15.409C38.8598 15.1388 38.7758 14.4685 38.633 13.9534L39.0306 13.8442C39.3525 15.0143 39.0236 15.5265 38.6918 15.7505C38.4889 15.8876 38.2285 15.9548 37.9163 15.9548Z" fill="#656E75"/>
<path d="M29.6452 33.9726L29.354 33.6801C36.7141 26.3478 38.4876 14.2416 33.307 6.69369L33.6471 6.45996C38.9341 14.166 37.1396 26.5074 29.6452 33.9726Z" fill="#656E75"/>
<path d="M33.8052 34.4081L33.5141 34.1156C40.8629 26.7959 40.7789 14.5063 33.3279 6.71911L33.626 6.43359C41.2311 14.3831 41.3109 26.9317 33.8052 34.4081Z" fill="#656E75"/>
<path d="M34.1567 31.2667L34.0629 30.9252C32.6057 25.6349 25.0497 16.4719 17.2193 10.4986L17.0317 10.3544L17.1997 10.1878C22.2655 5.14101 27.4559 2.54762 30.744 3.41955C32.19 3.80303 33.1951 4.8513 33.657 6.45521C37.323 9.27393 39.5011 13.2571 39.7936 17.6783C40.1128 22.504 38.1993 27.2402 34.4087 31.0162L34.1567 31.2667ZM17.6574 10.3152C25.3185 16.2116 32.6799 25.1128 34.3611 30.4774C37.9039 26.8287 39.6845 22.3067 39.3807 17.7063C39.0951 13.3845 36.9535 9.49087 33.3504 6.74212L33.2944 6.70013L33.2762 6.63295C32.8591 5.12002 31.9716 4.17391 30.6362 3.81982C27.5259 2.99268 22.5665 5.47971 17.6574 10.3152Z" fill="#656E75"/>
<path d="M38.9158 22.6681C37.6588 18.1055 31.1386 10.1994 24.3818 5.04478L24.6324 4.71729C31.4507 9.91808 38.0367 17.9222 39.3133 22.559L38.9158 22.6681Z" fill="#656E75"/>
<path d="M38.6344 13.9536C37.9037 11.3015 34.1061 6.70109 30.1699 3.69762L30.4205 3.37012C34.4183 6.41977 38.2817 11.1181 39.032 13.8445L38.6344 13.9536Z" fill="#656E75"/>
<path d="M31.1193 24.6562L30.8281 24.3637C35.46 19.7494 37.7823 14.7641 37.0376 11.0287C36.6456 9.06087 35.3872 7.58712 33.3981 6.76838L33.5549 6.3877C35.677 7.26102 37.0222 8.83833 37.4421 10.9489C38.2134 14.8201 35.8492 19.9453 31.1193 24.6562Z" fill="#656E75"/>
<path d="M25.0495 17.2883L24.7583 16.9958C31.3555 10.4235 33.9143 7.20166 34.1229 6.49488C34.0361 6.52007 33.8723 6.58445 33.5797 6.7552L33.3726 6.39831C33.8275 6.13379 34.2768 5.92525 34.4812 6.19117C34.6226 6.37591 34.8605 6.68382 32.1898 9.76286C30.482 11.7363 28.0128 14.3366 25.0495 17.2883Z" fill="#656E75"/>
<path d="M17.3634 10.6078L17.2193 10.4986C13.9312 7.98921 11.5697 6.7352 9.90538 6.14599C8.4622 7.01512 7.11141 8.05639 5.895 9.26702L5.64444 9.51614L5.55065 9.17465C4.94455 6.97313 5.53666 6.02562 6.14136 5.61835C6.93504 5.08231 8.21584 5.1229 9.86339 5.69253C15.2959 2.49172 21.9827 1.67437 27.754 3.44062C28.8599 3.2013 29.8691 3.1873 30.744 3.41963C32.2095 3.80871 33.223 4.88078 33.6751 6.52247L33.8375 7.11169L33.3518 6.7408C31.658 5.449 29.7501 4.4917 27.726 3.86049C24.7865 4.53089 21.1191 6.86676 17.4922 10.479L17.3634 10.6078ZM10.3631 5.87727C12.2948 6.63443 14.6744 8.0522 17.327 10.062C20.6921 6.738 24.1048 4.5001 26.9715 3.64356C21.567 2.19221 15.4359 2.99136 10.3631 5.87727ZM7.59434 5.67573C6.88325 5.67573 6.51371 5.86467 6.37093 5.95984C5.57165 6.50008 5.62484 7.6981 5.86001 8.72259C6.94484 7.67851 8.13186 6.76179 9.39026 5.97804C8.63578 5.75271 8.04647 5.67573 7.59434 5.67573ZM28.5757 3.71214C30.1715 4.27756 31.686 5.04733 33.0732 6.02562C32.6015 4.86398 31.7854 4.12221 30.639 3.81851C30.0189 3.65476 29.326 3.62117 28.5757 3.71214Z" fill="#656E75"/>
<path d="M24.3819 5.0453C20.065 1.75212 16.4003 0.213997 15.0482 1.12791C14.2923 1.63876 14.4379 2.85078 14.694 3.77869L14.2965 3.88786C13.7688 1.97185 14.2881 1.14331 14.8172 0.78642C16.3654 -0.259057 20.0342 1.21049 24.6325 4.7178L24.3819 5.0453Z" fill="#656E75"/>
<path d="M30.1685 3.69801C27.1394 1.38732 25.3897 1.02063 24.813 1.41111C24.414 1.68123 24.498 2.35162 24.6408 2.86666L24.2433 2.97583C23.9213 1.80579 24.2503 1.29355 24.582 1.06962C25.5185 0.437016 27.7007 1.29635 30.4191 3.37051L30.1685 3.69801Z" fill="#656E75"/>
<path d="M33.3068 6.69683C31.0266 3.37566 27.6545 1.34908 23.8121 0.990795C19.2698 0.568126 14.477 2.50793 10.6583 6.31195L10.3672 6.01944C14.274 2.12724 19.1886 0.145457 23.8513 0.579323C27.8183 0.948808 31.2968 3.03836 33.647 6.4617L33.3068 6.69683Z" fill="#656E75"/>
<path d="M33.3281 6.72055C29.6215 2.84795 24.7152 0.681419 19.5094 0.618439C14.571 0.562456 9.96149 2.42668 6.49843 5.87661L6.20728 5.5841C9.69414 2.11038 14.3302 0.205566 19.2827 0.205566C19.3596 0.205566 19.4366 0.205566 19.5136 0.206966C24.83 0.269946 29.8412 2.48266 33.6248 6.43644L33.3281 6.72055Z" fill="#656E75"/>
<path d="M19.9418 40C19.5834 40 19.2069 39.9832 18.9227 39.9636C18.444 39.93 17.7763 39.86 16.8819 39.7481C16.3541 39.6823 15.699 39.5367 15.2973 39.4332C14.638 39.2624 13.7547 38.9937 13.0982 38.767C12.5299 38.5696 11.2953 38.0546 10.2231 37.4416C9.72756 37.1589 8.41177 36.4059 7.06238 35.2499C6.38348 34.669 5.35464 33.7341 4.25021 32.3248C3.88627 31.8601 3.60491 31.4542 3.60351 31.4514C3.31936 31.0414 3.31936 31.0414 2.88962 30.3556C2.55647 29.8251 2.20513 29.1296 2.05535 28.8315C1.83139 28.3864 1.59622 27.8602 1.45344 27.4823C1.34706 27.2024 1.23648 26.8917 1.13149 26.5809C0.977518 26.1695 0.841739 25.7496 0.724158 25.3227C0.565982 24.7041 0.357414 23.8896 0.272027 23.2668C0.19224 22.6874 0.104053 22.0254 0.0606602 21.5173C0.0438628 21.3144 -0.0107288 20.6104 0.0018693 20.059L0.00466886 19.9722C0.0172669 19.4641 0.0326645 18.8315 0.0690589 18.3459C0.101254 17.919 0.171243 17.334 0.248231 16.854C0.532387 15.0597 0.991516 13.7637 1.00971 13.7105C1.14549 13.3312 1.39745 12.6245 1.60882 12.1262C1.7628 11.7637 2.01336 11.2361 2.27792 10.7183C2.67126 9.94989 3.27316 8.97579 3.77849 8.2956C4.42379 7.42647 5.24966 6.45797 5.88376 5.83097C6.84261 4.88206 7.21915 4.59795 8.46776 3.65604C8.90309 3.32714 9.5162 2.95906 9.94033 2.70993C10.3267 2.4832 10.8712 2.19349 11.3261 1.97376C11.767 1.76103 12.3928 1.49231 12.9205 1.29077C13.22 1.17601 13.584 1.05984 13.9367 0.946479C14.0907 0.897494 14.2377 0.849908 14.372 0.805122C14.8662 0.639973 15.5185 0.501416 16.091 0.383853C16.4003 0.320872 16.7741 0.264889 17.1366 0.213105C17.2892 0.190712 17.4376 0.169719 17.5706 0.148725C18.1207 0.0619523 18.8472 0.0297622 19.4183 0.0101683C19.9082 -0.00662651 20.4821 -0.00242781 20.8782 0.0213648C21.4522 0.0549544 22.2472 0.130531 22.9051 0.213105C23.8388 0.330669 24.6717 0.551801 25.5535 0.785528C26.2114 0.959075 27.0849 1.26698 27.726 1.54829C28.3195 1.81001 28.7618 2.01435 29.0782 2.1767C29.4785 2.38103 30.0118 2.68054 30.4066 2.91987C30.8167 3.16899 31.2856 3.4769 31.602 3.70363C32.0737 4.04372 32.2333 4.15709 32.9402 4.7421C33.0172 4.80648 33.4203 5.14658 33.9494 5.65882C34.3526 6.0507 34.6899 6.41739 34.8509 6.59513C35.0468 6.80926 35.4822 7.31591 35.7565 7.6728C36.1989 8.24522 36.2787 8.36278 36.7196 9.01358C37.0513 9.50343 37.6379 10.5083 37.9556 11.1773C38.1992 11.691 38.6079 12.5517 38.9424 13.5692C39.305 14.6762 39.5556 15.6489 39.6871 16.4621C39.8201 17.285 39.9699 18.2157 39.9993 19.5509C40.0301 21.0149 39.8999 22.1709 39.8201 22.7293C39.7375 23.3004 39.5863 24.364 39.1328 25.8602C38.8599 26.7629 38.3685 27.9217 38.0046 28.7335C37.8366 29.1072 37.5693 29.604 37.1829 30.2534C37.0149 30.5375 36.7938 30.865 36.581 31.1813C36.4872 31.3199 36.3976 31.4542 36.3179 31.576C36.0183 32.0351 35.5606 32.5949 35.233 32.9672L35.1728 33.0358C34.7795 33.4822 34.2896 34.0378 33.8612 34.4213C33.7646 34.5081 33.6597 34.6033 33.5519 34.7012C33.2593 34.9686 32.9262 35.2709 32.6476 35.4976C32.2613 35.8111 31.693 36.2618 31.2282 36.5557L30.9091 36.76C30.5773 36.9727 30.2008 37.2149 29.89 37.3898C29.4099 37.6599 28.7828 37.9818 28.3279 38.189C26.7251 38.9223 25.3393 39.2778 25.1882 39.317C24.2447 39.5535 23.0073 39.7635 22.2346 39.8726C21.8147 39.9314 21.287 39.9538 20.8208 39.9734C20.6683 39.9804 20.5199 39.986 20.3841 39.993C20.2469 39.9958 20.0958 40 19.9418 40ZM4.16203 31.5214C4.27121 31.6712 4.41539 31.8643 4.57636 32.07C5.65839 33.45 6.66764 34.3667 7.33254 34.9364C8.65253 36.0672 9.94313 36.8048 10.4289 37.0833C11.4773 37.6823 12.6811 38.1862 13.234 38.3779C13.8807 38.6018 14.7514 38.865 15.4009 39.0343C15.9132 39.1673 16.5151 39.2876 16.9322 39.3394C17.8197 39.45 18.479 39.5199 18.9507 39.5521C19.3455 39.5787 19.9236 39.6011 20.3631 39.5773C20.5003 39.5703 20.6487 39.5647 20.8041 39.5577C21.2604 39.5381 21.7783 39.5171 22.1772 39.4612C22.9401 39.3534 24.1593 39.1463 25.0874 38.9139C25.2358 38.8761 26.5866 38.5291 28.1571 37.8111C28.6022 37.6081 29.2182 37.2932 29.6885 37.0273C29.9894 36.858 30.3604 36.62 30.6879 36.4101L31.0099 36.2044C31.4578 35.9217 32.0121 35.4808 32.3901 35.1743C32.6602 34.956 32.9878 34.6564 33.2761 34.3933C33.3853 34.294 33.4903 34.1974 33.5883 34.1106C33.9984 33.7425 34.4799 33.1981 34.8663 32.7586L34.9265 32.6901C35.2456 32.329 35.688 31.7859 35.9763 31.3451C36.0575 31.2219 36.1485 31.0862 36.2423 30.9462C36.4522 30.6341 36.6692 30.3122 36.8316 30.0379C37.2095 29.4025 37.4699 28.9196 37.6309 28.5599C37.9906 27.758 38.4749 26.6173 38.7409 25.7356C39.1846 24.2689 39.3344 23.2262 39.4142 22.665C39.4926 22.1191 39.6199 20.9883 39.5891 19.5537C39.5612 18.2479 39.4142 17.3326 39.284 16.5237C39.1566 15.7301 38.9117 14.7784 38.5547 13.6923C38.2286 12.6986 37.8282 11.8533 37.5875 11.3481C37.2781 10.6959 36.7056 9.71616 36.3864 9.24451C35.9469 8.59651 35.8685 8.48175 35.4332 7.91772C35.1644 7.57063 34.7403 7.07658 34.5499 6.86665C34.3904 6.6917 34.06 6.33061 33.6653 5.94713C33.1473 5.44469 32.754 5.11439 32.6812 5.05281C31.9841 4.47619 31.8287 4.36422 31.364 4.02972C31.0561 3.80859 30.5983 3.50769 30.1966 3.26416C29.8103 3.02903 29.2867 2.73652 28.8948 2.53639C28.5854 2.37824 28.1501 2.1767 27.5636 1.91778C26.9407 1.64346 26.091 1.34536 25.4513 1.17601C24.5835 0.946479 23.7632 0.729546 22.8561 0.614781C22.2066 0.532207 21.4214 0.45803 20.8558 0.42444C20.4709 0.402047 19.9124 0.397848 19.4337 0.413244C18.8738 0.431438 18.1627 0.463628 17.6349 0.547602C17.5006 0.568596 17.3508 0.590989 17.1968 0.613382C16.8413 0.665166 16.4731 0.719749 16.175 0.77993C15.7704 0.862505 15.0159 1.01786 14.5036 1.1886C14.3678 1.23339 14.2181 1.28098 14.0641 1.33136C13.7169 1.44193 13.3586 1.55669 13.0702 1.66726C12.5523 1.86599 11.9378 2.12911 11.5067 2.33765C11.0672 2.55038 10.5212 2.83869 10.1503 3.05703C9.73596 3.30055 9.13546 3.66164 8.71832 3.97654C7.48651 4.90585 7.11417 5.18717 6.17491 6.11648C5.55481 6.73089 4.74434 7.6784 4.11023 8.53353C3.61751 9.19693 3.0296 10.1472 2.64606 10.8974C2.3857 11.4082 2.13934 11.9247 1.98956 12.2788C1.78239 12.7672 1.53323 13.4656 1.39885 13.8407C1.38066 13.8939 0.934125 15.1535 0.655568 16.9099C0.582779 17.3718 0.51279 17.9582 0.480595 18.3683C0.444201 18.8441 0.428803 19.4697 0.417605 19.9736L0.414805 20.0618C0.406407 20.4201 0.427403 20.9491 0.470797 21.4753C0.51699 22.0156 0.619174 22.7587 0.680764 23.2038C0.763352 23.8028 0.96772 24.6048 1.1175 25.1912C1.1203 25.1996 1.1217 25.208 1.1245 25.2164C1.22388 25.5397 1.36106 25.9693 1.50944 26.4046C2.48928 29.0414 4.21802 31.3577 6.56545 33.1743C6.59625 33.1981 6.62704 33.2219 6.65784 33.2457L6.40728 33.5732C5.58561 32.9504 4.83532 32.2618 4.16203 31.5214Z" fill="#656E75"/>
</svg>
